<?xml version="1.0" encoding="UTF-8" standalone="no"?>
<!-- Created with Inkscape (http://www.inkscape.org/) -->

<svg
   viewBox="0 0 141 53.328796"
   version="1.1"
   id="svg5"
   xml:space="preserve"
   xmlns="http://www.w3.org/2000/svg"
   xmlns:svg="http://www.w3.org/2000/svg"><defs
     id="defs2" /><g
     id="layer2"
     transform="translate(-9.6909849,-35.051673)"><text
       xml:space="preserve"
       style=""
       x="62.0"
       y="75.635162"
       id="text4715"><tspan
         id="tspan4713"
         class="st0 s1 text"
         x="62.0"
         y="75.635162">Devs</tspan></text><g
       id="g5620"
       transform="matrix(0.26458333,0,0,0.26458333,1.3942454,27.3018)">
	<g
   id="g5612">
		<polygon
   class="st0"
   points="125,52.2 125,52.2 125,30 125,30 31.9,63.2 46.1,186.3 125,230 125,230 125,153.4 100.3,153.4 88.6,182.6 66.9,182.6 66.8,182.6 125,52.1 "
   id="polygon5608" />
		<polygon
   class="st0"
   points="108,135.4 125,135.4 125,94.5 "
   id="polygon5610" />
	</g>
	<g
   class="st1"
   id="g5618">
		<polygon
   class="st0"
   points="125,52.2 125,52.2 125,30 125,30 218.1,63.2 203.9,186.3 125,230 125,230 125,153.4 149.7,153.4 161.4,182.6 183.1,182.6 183.2,182.6 125,52.1 "
   id="polygon5614" />
		<polygon
   class="st0"
   points="142,135.4 125,135.4 125,94.5 "
   id="polygon5616" />
	</g>
</g></g><style
     type="text/css">
   .text {
      font-style:normal;
      font-variant:normal;
      font-weight:normal;
      font-stretch:normal;
      font-size:34.1407px;
      font-family:Montserrat;
      font-variant-ligatures:normal;
      font-variant-caps:normal;
      font-variant-numeric:normal;
      font-variant-east-asian:normal;
      font-variation-settings:'wght' 800;
      fill-opacity:1;
      stroke-width:0.334;
      stroke-dasharray:none;
      stroke-opacity:1;
   }
	.st0{fill:#FFFFFF;}
	.st1{opacity:0.9;}
</style></svg>